<svg width="1424" height="1424" viewBox="0 0 1424 1424" fill="none" xmlns="http://www.w3.org/2000/svg">
<g filter="url(#filter0_f_15_607)">
<path d="M712 1230C998.083 1230 1230 998.083 1230 712C1230 425.916 998.083 194 712 194C425.916 194 194 425.916 194 712C194 998.083 425.916 1230 712 1230Z" fill="white"/>
<path d="M712 1230C998.083 1230 1230 998.083 1230 712C1230 425.916 998.083 194 712 194C425.916 194 194 425.916 194 712C194 998.083 425.916 1230 712 1230Z" stroke="white" stroke-width="77" stroke-miterlimit="10"/>
</g>
<mask id="mask0_15_607" style="mask-type:alpha" maskUnits="userSpaceOnUse" x="187" y="187" width="1050" height="1050">
<path d="M712 1233.5C1000.02 1233.5 1233.5 1000.02 1233.5 712C1233.5 423.983 1000.02 190.5 712 190.5C423.983 190.5 190.5 423.983 190.5 712C190.5 1000.02 423.983 1233.5 712 1233.5Z" fill="#9EBECD" stroke="black" stroke-width="7" stroke-miterlimit="10"/>
<mask id="mask1_15_607" style="mask-type:alpha" maskUnits="userSpaceOnUse" x="194" y="194" width="1036" height="1036">
<path d="M712 1230C998.083 1230 1230 998.083 1230 712C1230 425.916 998.083 194 712 194C425.916 194 194 425.916 194 712C194 998.083 425.916 1230 712 1230Z" fill="#9EBECD"/>
</mask>
<g mask="url(#mask1_15_607)">
<ellipse cx="712" cy="711.058" rx="553.789" ry="166.702" fill="white"/>
<path d="M712 1230C998.083 1230 1230 998.083 1230 712C1230 425.916 998.083 194 712 194C425.916 194 194 425.916 194 712C194 998.083 425.916 1230 712 1230Z" stroke="white" stroke-width="77" stroke-miterlimit="10"/>
</g>
</mask>
<g mask="url(#mask0_15_607)">
<path d="M712 1233.5C1000.02 1233.5 1233.5 1000.02 1233.5 712C1233.5 423.983 1000.02 190.5 712 190.5C423.983 190.5 190.5 423.983 190.5 712C190.5 1000.02 423.983 1233.5 712 1233.5Z" fill="#9EBECD" stroke="black" stroke-width="7" stroke-miterlimit="10"/>
<mask id="mask2_15_607" style="mask-type:alpha" maskUnits="userSpaceOnUse" x="194" y="194" width="1036" height="1036">
<path d="M712 1230C998.083 1230 1230 998.083 1230 712C1230 425.916 998.083 194 712 194C425.916 194 194 425.916 194 712C194 998.083 425.916 1230 712 1230Z" fill="#9EBECD"/>
</mask>
<g mask="url(#mask2_15_607)">
<g filter="url(#filter1_f_15_607)">
<ellipse cx="712" cy="711.058" rx="553.789" ry="166.702" fill="white"/>
</g>
<g filter="url(#filter2_f_15_607)">
<path d="M712 1230C998.083 1230 1230 998.083 1230 712C1230 425.916 998.083 194 712 194C425.916 194 194 425.916 194 712C194 998.083 425.916 1230 712 1230Z" stroke="white" stroke-width="77" stroke-miterlimit="10"/>
</g>
</g>
<path d="M1046.77 384.079C1055.82 383.514 1064.29 387.093 1072.58 390.672C1074.84 391.614 1077.29 392.744 1079.36 394.062C1082.56 396.134 1085.2 398.771 1087.84 401.597C1092.17 406.494 1096.31 411.957 1099.52 417.608C1101.96 422.129 1104.23 427.214 1103.47 432.488C1102.72 437.763 1099.14 442.095 1095.75 446.239C1091.79 450.948 1087.27 456.034 1081.43 457.918C1075.78 459.613 1069.75 458.483 1064.1 456.787C1054.87 454.15 1046.02 450.571 1037.54 446.051C1034.15 444.355 1030.76 442.283 1028.13 439.646C1025.11 436.821 1022.85 433.242 1020.78 429.663C1017.58 424.577 1014.38 419.303 1013.25 413.464C1012.49 410.262 1012.49 406.683 1013.06 403.481C1013.62 399.337 1014.75 395.192 1017.39 391.802C1021.35 387.093 1027.56 385.209 1033.59 384.079C1037.92 383.326 1042.63 382.76 1046.96 383.891L1046.77 384.079Z" fill="#88A9BB"/>
<path d="M1046.77 386.904C1055.25 386.528 1063.16 389.73 1070.88 392.932C1074.65 394.627 1078.42 396.134 1081.43 398.96C1084.26 401.408 1086.9 404.422 1089.16 407.436C1093.87 413.275 1099.33 420.433 1100.65 427.968C1101.96 435.691 1095.94 441.718 1091.23 446.992C1088.97 449.63 1086.33 452.078 1083.32 453.774C1079.74 455.657 1075.78 456.034 1071.83 455.469C1063.73 454.339 1055.63 451.136 1048.28 447.934C1041.12 444.92 1033.21 441.53 1027.94 435.502C1025.49 432.488 1023.42 429.098 1021.53 425.896C1019.46 422.505 1017.58 419.115 1016.45 415.159C1014.19 407.624 1014.94 396.699 1021.53 391.614C1024.55 389.165 1028.5 388.035 1032.27 387.281C1036.79 386.339 1041.31 385.774 1045.83 386.716C1047.15 387.093 1048.28 386.528 1049.03 385.398C1049.03 385.398 1049.03 385.209 1049.22 385.209C1051.11 382.007 1046.21 379.182 1044.33 382.384C1044.33 382.384 1044.33 382.572 1044.14 382.572C1045.27 382.195 1046.21 381.63 1047.34 381.254C1039.24 379.37 1029.07 381.065 1021.72 384.832C1013.43 388.976 1010.23 397.264 1009.67 405.929C1009.1 415.347 1013.25 423.259 1018.14 430.982C1020.59 434.937 1023.04 438.893 1026.62 442.095C1030.01 445.109 1033.97 447.369 1037.92 449.253C1046.59 453.585 1055.63 457.164 1064.86 459.613C1073.71 462.062 1082.37 461.873 1089.72 456.034C1093.11 453.397 1095.94 450.006 1098.57 446.804C1101.21 443.602 1103.85 440.211 1105.17 436.256C1108.37 427.403 1103.66 418.361 1098.76 411.015C1093.49 402.915 1086.71 394.062 1077.67 389.73C1068.06 385.021 1057.32 380.5 1046.59 381.065C1043.01 381.442 1043.01 387.093 1046.77 386.904Z" fill="black"/>
<path d="M571.104 1013.95C580.146 1013.38 588.622 1016.96 596.91 1020.54C599.17 1021.48 601.619 1022.61 603.691 1023.93C606.893 1026 609.53 1028.64 612.168 1031.46C616.5 1036.36 620.644 1041.82 623.846 1047.48C626.295 1052 628.555 1057.08 627.802 1062.36C627.048 1067.63 623.469 1071.96 620.079 1076.11C616.123 1080.82 611.602 1085.9 605.763 1087.79C600.112 1089.48 594.085 1088.35 588.434 1086.66C579.204 1084.02 570.351 1080.44 561.874 1075.92C558.484 1074.22 555.093 1072.15 552.456 1069.51C549.442 1066.69 547.182 1063.11 545.11 1059.53C541.908 1054.45 538.706 1049.17 537.576 1043.33C536.822 1040.13 536.822 1036.55 537.387 1033.35C537.952 1029.2 539.082 1025.06 541.719 1021.67C545.675 1016.96 551.891 1015.08 557.919 1013.95C562.251 1013.19 566.96 1012.63 571.293 1013.76L571.104 1013.95Z" fill="#88A9BB" fill-opacity="0.4"/>
<path d="M571.104 1016.77C579.581 1016.4 587.492 1019.6 595.215 1022.8C598.982 1024.5 602.749 1026 605.763 1028.83C608.589 1031.28 611.226 1034.29 613.486 1037.3C618.195 1043.14 623.658 1050.3 624.976 1057.84C626.295 1065.56 620.267 1071.59 615.558 1076.86C613.298 1079.5 610.661 1081.95 607.647 1083.64C604.068 1085.53 600.112 1085.9 596.157 1085.34C588.057 1084.21 579.957 1081 572.611 1077.8C565.453 1074.79 557.542 1071.4 552.268 1065.37C549.819 1062.36 547.747 1058.97 545.863 1055.76C543.791 1052.37 541.908 1048.98 540.778 1045.03C538.517 1037.49 539.271 1026.57 545.863 1021.48C548.877 1019.03 552.833 1017.9 556.6 1017.15C561.121 1016.21 565.642 1015.64 570.162 1016.58C571.481 1016.96 572.611 1016.4 573.365 1015.27C573.365 1015.27 573.365 1015.08 573.553 1015.08C575.437 1011.87 570.539 1009.05 568.656 1012.25C568.656 1012.25 568.655 1012.44 568.467 1012.44C569.597 1012.06 570.539 1011.5 571.669 1011.12C563.57 1009.24 553.398 1010.93 546.052 1014.7C537.764 1018.84 534.562 1027.13 533.997 1035.8C533.431 1045.22 537.575 1053.13 542.473 1060.85C544.922 1064.81 547.37 1068.76 550.949 1071.96C554.34 1074.98 558.295 1077.24 562.251 1079.12C570.916 1083.45 579.957 1087.03 589.187 1089.48C598.04 1091.93 606.705 1091.74 614.051 1085.9C617.442 1083.26 620.267 1079.87 622.904 1076.67C625.541 1073.47 628.178 1070.08 629.497 1066.12C632.699 1057.27 627.99 1048.23 623.093 1040.88C617.818 1032.78 611.037 1023.93 601.996 1019.6C592.389 1014.89 581.653 1010.37 570.916 1010.93C567.337 1011.31 567.337 1016.96 571.104 1016.77Z" fill="black"/>
<path d="M871.355 779.246C873.239 780.188 874.934 781.695 876.065 783.578C877.195 785.462 877.571 787.722 877.948 789.794C878.702 793.938 878.89 798.082 879.078 802.226C879.267 806.559 879.078 811.079 877.195 815.035C876.065 817.295 874.558 819.179 872.862 821.063C869.472 824.642 865.516 827.467 860.807 828.974C857.04 830.292 852.896 830.481 848.94 830.481C845.173 830.669 841.029 830.669 837.45 829.351C835.19 828.409 833.118 827.09 831.422 825.395C828.974 823.135 827.09 820.309 825.96 817.107C823.699 810.891 824.453 803.922 827.278 797.894C830.104 791.866 835.001 787.157 840.464 783.39C846.492 779.434 853.461 776.609 860.619 775.479" fill="url(#paint0_linear_15_607)"/>
<path d="M870.036 781.695C874.745 784.143 875.31 789.418 875.876 794.127C876.441 799.212 877.006 804.487 876.064 809.572C874.557 818.614 864.95 825.772 856.286 827.09C851.577 827.844 846.114 828.22 841.405 827.467C836.508 826.713 832.552 823.323 830.103 819.179C825.206 810.891 827.843 800.343 833.682 793.373C840.651 785.085 850.823 780.188 861.372 778.304C864.95 777.739 863.444 772.276 859.865 772.841C848.563 774.725 837.449 780.376 829.915 789.041C822.38 797.705 818.99 810.138 824.452 820.686C826.901 825.583 831.422 830.104 836.696 832.176C842.347 834.248 849.128 833.683 854.967 833.118C865.704 831.988 877.194 824.642 880.773 813.905C882.845 807.5 882.092 799.966 881.338 793.373C880.585 786.78 879.266 780.188 872.862 776.797C869.66 775.102 866.646 779.999 870.036 781.695Z" fill="black"/>
<path d="M854.403 997.936C853.273 1000.01 852.331 1002.27 850.824 1004.15C848.752 1006.6 845.927 1008.48 842.913 1009.43C840.087 1010.37 836.885 1010.56 833.871 1010.56C833.306 1010.56 832.741 1010.56 832.176 1010.37C831.611 1010.18 831.046 1009.8 830.669 1009.24C829.162 1007.73 828.409 1005.66 827.844 1003.59C827.279 1001.89 826.902 1000.2 826.902 998.501C826.902 997.559 827.09 996.617 827.467 995.864C827.844 995.299 828.22 994.734 828.597 994.357C833.683 989.271 841.029 986.634 848.375 987.011C849.317 987.011 850.259 987.199 851.012 987.576C852.519 988.329 853.649 989.836 854.403 991.343C854.968 992.285 855.533 993.415 855.345 994.357" fill="#88A9BB"/>
<path d="M851.955 996.429C850.071 1000.57 847.811 1004.15 843.478 1006.04C841.406 1006.98 838.958 1007.35 836.697 1007.54C835.567 1007.54 834.06 1007.92 833.118 1007.54C832.553 1007.35 832.177 1006.79 831.8 1006.22C830.67 1004.34 830.105 1002.08 829.54 1000.01C829.351 999.066 829.163 997.936 829.351 997.183C829.539 996.429 830.481 995.676 831.046 995.111C834.06 992.285 838.016 990.59 841.971 989.836C844.043 989.46 846.492 989.271 848.564 989.648C849.506 989.836 850.071 990.401 850.636 991.155C851.201 991.908 852.143 993.039 851.955 994.169C851.766 995.676 853.462 996.994 854.78 996.994C856.475 996.994 857.417 995.676 857.606 994.169C857.982 991.343 855.534 987.764 853.462 986.069C851.013 983.997 847.999 983.997 844.985 983.997C839.146 984.185 833.495 986.069 828.974 989.648C826.337 991.72 823.889 993.98 823.512 997.371C823.135 1000.38 824.265 1003.59 825.396 1006.41C826.526 1009.24 828.221 1012.25 831.235 1013.01C832.742 1013.38 834.437 1013.19 835.944 1013.19C837.639 1013.19 839.523 1013.01 841.218 1012.63C844.609 1011.87 847.811 1010.37 850.448 1008.11C853.273 1005.85 854.78 1002.65 856.476 999.443C857.229 998.124 856.852 996.429 855.534 995.487C854.592 994.734 852.52 995.111 851.955 996.429Z" fill="black"/>
<path d="M448.885 353.736C447.943 355.243 446.813 356.75 445.871 358.257C445.117 359.387 444.176 360.517 443.045 361.271C442.292 361.836 441.35 362.213 440.408 362.589C435.511 364.473 430.425 365.98 425.339 365.226C424.962 365.226 424.397 365.038 424.209 364.85C424.021 364.661 423.832 364.285 423.832 363.908C423.644 363.154 423.456 362.401 423.267 361.648C423.079 360.706 423.267 359.764 423.079 358.822C423.079 357.315 422.702 355.997 422.89 354.49C423.267 352.229 424.774 350.534 426.469 349.027C427.411 348.274 428.353 347.52 429.483 346.767C430.425 346.202 431.555 345.637 432.685 345.26C433.816 344.883 434.946 344.318 436.264 344.13C439.09 343.565 442.292 343.941 444.741 345.448C447.189 346.955 449.073 349.592 449.45 352.606" fill="#88A9BB"/>
<path d="M446.436 352.229C445.306 354.113 444.176 355.997 442.669 357.692C441.351 359.199 439.655 359.764 437.772 360.329C435.7 361.083 433.628 361.648 431.556 362.024C430.426 362.213 429.484 362.401 428.353 362.401C427.6 362.401 426.282 362.589 425.716 362.213C426.093 362.589 426.47 362.966 426.658 363.155C425.905 362.213 426.093 360.141 426.093 358.822C426.093 357.315 425.34 355.432 426.093 353.925C426.658 352.606 427.788 351.664 428.73 350.723C430.049 349.592 431.367 348.839 432.874 348.085C435.7 346.767 438.902 345.825 442.104 347.144C444.741 348.274 446.436 350.534 446.813 353.36C447.002 354.867 448.885 355.62 450.204 355.243C451.899 354.867 452.464 353.36 452.087 351.853C451.334 346.39 446.436 342.058 441.162 341.116C435.323 340.174 429.295 342.811 424.963 346.39C422.891 348.085 420.819 350.346 420.254 352.983C419.877 354.49 420.066 355.808 420.254 357.315C420.442 358.822 420.254 360.517 420.631 362.024C420.819 363.155 421.007 364.661 421.761 365.603C422.891 367.299 424.586 367.487 426.47 367.675C429.484 367.864 432.686 367.487 435.511 366.545C438.525 365.792 442.292 364.85 444.93 362.966C447.755 360.894 449.639 357.504 451.334 354.678C453.406 352.041 448.508 349.216 446.436 352.229Z" fill="black"/>
<path d="M374.452 503.105C372.569 506.119 370.497 509.132 368.236 512.146C366.73 514.407 365.034 516.667 362.774 518.174C361.267 519.304 359.383 520.057 357.5 520.623C347.705 524.201 337.533 527.215 327.173 526.085C326.42 525.897 325.478 525.897 324.913 525.332C324.348 524.767 324.159 524.201 323.971 523.448C323.594 521.941 323.218 520.434 323.029 518.927C322.841 517.044 323.029 515.16 322.841 513.276C322.652 510.451 321.899 507.437 322.276 504.612C322.841 500.279 326.043 496.7 329.434 493.875C331.317 492.18 333.389 490.673 335.461 489.354C337.533 488.036 339.793 487.094 342.054 486.34C344.314 485.399 346.763 484.457 349.212 484.08C355.051 482.761 361.267 483.703 366.353 486.905C371.439 490.108 375.018 495.382 375.771 501.409" fill="#88A9BB"/>
<path d="M372.004 501.598C369.366 505.553 366.918 509.697 363.716 513.276C360.702 516.667 356.369 517.985 352.037 519.492C347.328 520.999 342.619 522.506 337.721 523.071C335.461 523.448 333.012 523.448 330.752 523.448C329.81 523.448 328.68 523.448 327.738 523.26C327.55 523.26 326.608 522.883 326.796 523.071C326.985 523.26 326.608 521.941 326.42 521.564C325.854 519.304 325.666 517.044 325.666 514.783C325.666 512.334 325.101 509.886 325.101 507.437C324.913 503.105 326.985 499.714 330.187 496.889C336.214 491.049 345.256 486.152 353.732 485.964C363.15 485.775 371.627 491.991 372.945 501.598C373.134 503.105 375.017 503.858 376.336 503.481C378.031 503.105 378.596 501.598 378.22 500.091C376.901 489.919 368.048 482.196 358.065 480.689C347.705 479.183 336.403 484.08 328.492 490.484C324.724 493.686 320.769 497.642 319.638 502.54C319.073 505.177 319.262 507.814 319.45 510.451C319.827 513.465 319.639 516.478 320.015 519.492C320.392 521.753 320.769 524.955 322.276 526.65C324.159 528.722 326.985 528.722 329.433 528.91C335.273 529.287 341.112 528.345 346.763 526.839C350.153 525.897 353.356 524.955 356.558 523.636C359.572 522.506 362.397 521.564 364.846 519.492C369.743 515.537 373.134 509.509 376.336 504.235C378.973 501.409 374.076 498.584 372.004 501.598Z" fill="black"/>
<path d="M554.152 647.58C550.761 644.566 547.182 641.552 544.545 637.785C541.908 634.017 540.024 629.497 540.213 624.976C540.401 622.716 540.966 620.455 541.72 618.195C543.792 612.544 546.994 607.27 552.08 604.256C553.963 603.126 555.847 602.372 557.919 601.619C561.498 600.489 565.265 599.547 569.221 598.605C572.235 598.04 575.06 597.287 578.074 597.475C580.711 597.663 583.348 598.228 585.797 598.982C588.434 599.735 591.071 600.3 593.143 601.807C595.215 603.314 596.533 605.198 598.04 607.27C599.547 609.342 600.866 611.414 601.808 613.863C602.938 616.876 603.126 620.267 603.126 623.657C603.126 627.801 603.126 631.945 601.619 635.713C600.112 639.857 596.91 643.436 593.143 645.696C589.376 648.145 585.043 649.652 580.711 650.593C574.683 651.912 568.279 652.1 562.063 651.347" fill="url(#paint1_linear_15_607)"/>
<path d="M556.035 645.696C552.268 642.305 548.124 638.915 545.487 634.394C542.473 629.308 542.473 624.411 544.357 619.137C546.052 614.804 548.501 610.472 552.268 607.647C556.412 604.444 562.251 603.314 567.149 602.184C569.786 601.619 572.423 600.865 575.248 600.677C578.262 600.489 581.088 600.865 584.101 601.619C586.362 602.184 588.999 602.749 591.071 604.068C593.143 605.386 594.65 607.647 595.968 609.719C597.475 611.791 598.794 614.051 599.359 616.5C600.112 619.137 600.112 621.962 600.112 624.788C600.112 630.062 599.547 635.336 595.968 639.668C588.057 648.898 573.176 650.217 561.874 648.71C558.296 648.333 558.296 653.984 561.874 654.361C574.306 655.868 589.376 654.172 598.794 644.943C603.315 640.422 605.386 634.583 605.763 628.367C606.14 621.962 605.763 615.369 602.561 609.719C599.547 604.444 595.968 599.735 590.129 597.475C583.725 595.215 577.32 594.273 570.728 595.591C564.323 596.721 557.542 598.228 551.703 601.054C546.617 603.691 542.85 608.4 540.401 613.486C537.199 619.89 535.692 626.86 538.517 633.641C541.155 640.233 546.429 644.943 551.703 649.652C554.905 651.912 558.861 647.956 556.035 645.696Z" fill="black"/>
<path d="M541.154 788.852C531.171 790.736 520.811 792.996 513.276 799.589C508.379 803.921 505.365 809.761 501.598 815.223C495.947 823.7 488.977 831.234 480.878 837.639C480.689 837.827 480.501 837.827 480.312 838.015C478.806 839.145 477.299 840.464 475.603 841.406C474.096 842.536 472.401 843.666 470.706 844.608C469.011 845.738 467.315 846.68 465.62 847.622C463.925 848.564 462.23 849.505 460.534 850.447C458.839 851.389 457.144 852.331 455.448 853.273C453.753 854.214 452.058 855.156 450.174 855.91C449.232 856.475 448.291 856.852 447.349 857.417C446.784 857.605 446.407 857.982 445.842 858.17C445.654 858.359 445.277 858.358 445.088 858.547C444.9 858.735 444.712 858.735 444.335 858.735C444.147 858.735 443.77 858.924 443.582 858.924C443.393 858.924 443.205 859.112 443.017 859.112C442.828 859.3 442.64 859.3 442.451 859.489C442.075 859.677 441.698 860.054 441.321 860.242C440.568 860.619 439.626 861.184 438.872 861.561C437.177 862.314 435.294 862.879 433.598 863.444C433.41 863.444 433.222 863.633 432.845 863.633C414.95 869.472 396.679 874.935 379.538 882.657C378.031 883.411 376.524 883.976 375.206 885.106C372.38 887.178 370.496 890.569 369.366 893.959C368.424 897.35 368.048 901.117 367.859 904.696C367.859 905.449 367.671 906.203 367.671 906.956C367.483 909.028 367.294 911.289 367.294 913.361C367.106 915.433 366.918 917.693 366.918 919.765C366.918 920.895 366.729 921.837 366.729 922.967C366.729 923.532 366.729 924.097 366.541 924.474C366.541 924.662 366.541 925.039 366.541 925.228C366.541 925.416 366.541 925.416 366.541 925.416C366.541 925.416 366.729 925.416 366.729 925.228L366.918 925.039L367.106 925.228C367.294 925.416 367.294 925.604 367.483 925.793C368.424 927.3 368.99 928.995 369.366 930.69C369.743 932.385 369.931 934.269 370.12 935.964C370.12 937.848 370.12 939.543 370.12 941.427C370.12 945.571 369.931 949.715 369.743 953.859C369.743 955.366 369.743 956.873 369.366 958.38C368.99 961.393 367.671 964.219 365.976 966.668C365.411 967.421 364.846 968.174 363.904 968.74C362.962 969.493 361.643 969.681 360.513 969.87C356.558 970.435 352.225 969.681 349.588 966.856C349.023 966.291 348.458 965.537 347.893 964.972C346.763 964.03 345.067 963.654 343.561 963.277C339.417 961.77 336.591 958.191 332.824 955.742C331.882 955.177 330.94 954.801 330.187 954.236C329.81 954.047 329.245 953.67 328.868 953.67C328.68 953.67 328.68 953.671 328.491 953.482C328.491 953.294 328.491 953.294 328.303 953.105C328.115 952.917 327.738 952.729 327.55 952.729C325.666 951.598 323.971 950.28 322.275 948.773C320.58 947.266 319.073 945.759 317.566 944.252C316.059 942.557 314.741 940.862 313.422 939.167C312.104 937.471 310.974 935.588 309.655 933.704C308.525 931.82 307.395 929.748 306.453 927.865C305.511 925.793 304.381 923.909 303.439 921.837C302.497 919.765 301.555 917.693 300.802 915.621C300.049 913.549 299.107 911.477 298.353 909.405C297.035 905.638 295.716 901.871 295.151 897.915C294.774 894.148 294.963 890.38 294.398 886.613C293.456 882.092 291.007 877.948 289.312 873.616C285.544 864.574 285.168 854.403 282.342 844.985C278.952 833.118 272.359 822.569 267.085 811.644C265.955 809.384 265.013 806.935 264.071 804.675C263.129 802.226 262.187 799.966 261.246 797.517C260.304 795.068 259.55 792.62 258.797 790.171C258.043 787.722 257.478 785.273 256.725 782.825C256.16 780.376 255.595 777.927 255.03 775.29C254.465 772.841 254.088 770.204 253.711 767.756C253.334 765.307 252.958 762.67 252.769 760.221C252.581 757.584 252.393 755.135 252.204 752.498C252.016 749.861 252.016 747.412 252.016 744.775C252.016 742.138 252.204 739.689 252.204 737.052C252.393 734.415 252.581 731.967 252.769 729.329C252.958 728.011 253.146 726.881 253.146 725.562C253.146 724.997 253.334 724.432 253.334 723.867C253.334 723.113 253.334 722.36 253.334 721.795C253.334 721.23 252.958 720.853 252.769 720.476C252.581 720.1 252.393 719.723 252.204 719.158C252.016 718.593 251.827 718.028 252.016 717.462C252.204 716.897 252.581 716.521 252.769 716.144C253.146 715.579 253.711 715.014 253.899 714.449C254.276 713.695 254.653 712.753 254.841 711.812C256.348 706.161 256.348 707.668 259.362 702.582C263.506 695.612 267.65 688.643 273.489 682.992C279.14 677.529 286.11 673.951 292.514 669.053C298.918 664.156 304.569 658.128 311.727 654.361C312.481 653.984 313.422 653.419 314.364 653.042C315.118 652.665 316.059 652.289 316.813 651.912C317.566 651.535 318.508 651.347 319.262 650.97C320.015 650.782 320.957 650.405 321.71 650.217C322.464 650.028 323.406 649.84 324.159 649.652C324.912 649.463 325.854 649.275 326.608 649.087C327.55 648.898 328.303 648.71 329.245 648.71C330.187 648.521 330.94 648.521 331.882 648.333C332.824 648.145 333.766 648.145 334.707 647.956C335.649 647.768 336.591 647.768 337.533 647.768C337.91 647.768 338.286 647.768 338.663 647.768C338.851 647.768 339.04 647.768 339.417 647.956C339.605 647.956 339.605 648.145 339.793 647.956C339.982 647.956 339.982 647.956 340.17 647.768C340.735 647.58 341.112 647.58 341.677 647.391C342.619 647.203 343.749 646.826 344.691 646.638C345.632 646.449 346.763 646.261 347.704 646.073C348.646 645.884 349.777 645.696 350.718 645.696C351.66 645.696 352.79 645.508 353.732 645.319C354.674 645.319 355.804 645.131 356.746 645.131C357.688 645.131 358.818 645.131 359.76 645.131C360.702 645.131 361.832 645.131 362.774 645.131C363.715 645.131 364.846 645.319 365.787 645.319C366.164 645.319 366.729 645.319 367.106 645.508C368.048 645.508 368.801 645.696 369.743 645.884C370.685 646.073 371.438 646.073 372.38 646.261C373.322 646.449 374.075 646.638 375.017 646.826C375.959 647.014 376.713 647.203 377.654 647.391C378.596 647.58 379.35 647.768 380.291 647.956C381.233 648.145 381.987 648.333 382.928 648.71C383.87 648.898 384.624 649.275 385.566 649.463C386.507 649.652 387.261 650.028 388.203 650.217C389.144 650.405 389.898 650.782 390.84 651.159C391.782 651.535 392.535 651.724 393.288 652.1C394.042 652.477 394.984 652.665 395.737 653.042C396.491 653.419 397.433 653.796 398.186 653.984C398.939 654.361 399.881 654.737 400.635 654.926C401.388 655.303 402.33 655.679 403.083 656.056C403.837 656.433 404.779 656.809 405.532 657.186C406.286 657.563 407.227 657.94 407.981 658.316C408.734 658.693 409.676 659.07 410.43 659.447C411.183 659.823 412.125 660.2 412.878 660.577C413.632 660.953 414.574 661.33 415.327 661.707C416.081 662.084 417.022 662.46 417.776 662.837C418.529 663.214 419.471 663.59 420.224 663.967C420.978 664.344 421.92 664.721 422.673 665.097C423.427 665.474 424.369 665.851 425.122 666.228C425.875 666.604 426.817 666.981 427.571 667.358C428.324 667.734 429.266 668.111 430.019 668.3C430.773 668.676 431.715 669.053 432.468 669.241C433.222 669.618 434.163 669.806 435.105 670.183C436.047 670.56 436.801 670.748 437.742 671.125C438.684 671.502 439.438 671.69 440.379 672.067C441.321 672.255 442.075 672.632 443.017 672.82C443.958 673.009 444.712 673.385 445.654 673.574C446.595 673.762 447.349 673.95 448.291 674.327C448.479 674.327 448.667 674.327 448.856 674.516L449.044 674.704L449.232 674.892C449.609 675.081 450.174 675.457 450.551 675.646C450.928 676.023 451.304 676.211 451.681 676.588C452.435 677.153 453.188 677.718 453.942 678.283C454.695 678.848 455.449 679.413 456.202 679.79C456.955 680.355 457.709 680.732 458.462 681.297C459.216 681.862 459.969 682.238 460.723 682.804C461.476 683.18 462.23 683.745 463.171 684.122C464.113 684.499 464.867 685.064 465.62 685.441C466.374 685.817 467.315 686.194 468.069 686.571C468.822 686.948 469.764 687.324 470.518 687.701C471.271 688.078 472.213 688.455 473.155 688.643C474.097 689.02 474.85 689.208 475.792 689.585C476.734 689.961 477.487 690.15 478.429 690.527C479.371 690.715 480.124 691.092 481.066 691.28C482.008 691.468 482.761 691.657 483.703 692.033C484.645 692.41 485.398 692.41 486.34 692.599C487.282 692.787 488.224 692.975 488.977 693.164C489.354 693.164 489.731 693.352 489.919 693.352C502.163 695.236 514.595 694.294 526.838 694.105C529.475 694.105 532.301 693.917 534.938 693.917C537.575 693.917 540.212 693.917 542.849 693.729C545.486 693.729 548.123 693.729 550.761 693.729C553.398 693.729 556.035 693.729 558.483 693.729C561.121 693.729 563.569 693.917 566.206 693.917C568.843 693.917 571.292 694.105 573.929 694.294C576.378 694.482 579.015 694.67 581.464 694.859C583.913 695.047 586.55 695.236 588.998 695.612C591.447 695.801 594.084 696.177 596.533 696.554C598.982 696.931 601.619 697.308 604.067 697.684C606.516 698.061 609.153 698.626 611.602 699.003C614.239 699.568 616.688 700.133 619.325 700.698C621.962 701.263 624.411 702.017 627.048 702.582C628.366 702.958 629.685 703.335 631.192 703.712C631.945 703.9 632.51 704.089 633.264 704.277C633.641 704.465 634.017 704.465 634.206 704.654C634.394 704.654 634.771 704.654 634.959 705.03C635.147 705.219 634.959 705.596 635.147 705.784C635.147 705.972 635.147 706.349 635.336 706.537C635.336 706.914 635.524 707.291 635.524 707.668C635.524 707.856 635.713 708.233 635.524 708.609C635.336 709.175 635.336 709.74 635.336 710.493C635.336 711.812 635.147 713.318 635.336 714.637C635.336 717.462 635.713 720.288 636.089 723.113C636.466 725.185 636.654 727.257 637.031 729.329C638.35 736.864 639.668 744.587 638.538 752.31C636.843 762.858 630.25 772.088 623.846 780.564C619.702 786.215 615.369 791.866 609.907 796.199C605.951 799.966 548.123 787.534 541.154 788.852Z" fill="url(#paint2_linear_15_607)" fill-opacity="0.57"/>
<path d="M540.401 786.215C533.055 787.534 525.709 789.229 518.928 792.62C511.958 796.01 507.249 801.661 502.917 808.065C498.584 814.658 494.252 821.063 488.601 826.902C482.95 832.741 476.734 837.827 469.953 842.159C463.172 846.492 456.014 850.259 448.668 854.026C446.973 854.968 445.089 855.91 443.205 856.475C441.51 857.04 440.003 857.982 438.496 858.924C434.917 860.619 430.962 861.749 427.194 862.879C410.43 868.342 393.477 873.616 377.467 880.962C373.511 882.657 370.309 885.295 368.237 889.062C366.165 892.829 365.411 897.161 365.034 901.494C364.658 906.203 364.281 911.1 364.093 915.809C363.904 918.07 363.716 920.519 363.528 922.779C363.339 924.474 362.774 926.923 364.281 928.241C365.223 929.183 366.541 929.183 367.672 928.618C367.86 928.618 368.048 928.43 368.237 928.241C367.107 928.053 365.976 927.865 364.846 927.865C366.541 929.56 366.73 933.704 366.918 935.964C367.106 939.543 366.918 943.122 366.918 946.701C366.73 952.917 367.483 959.887 363.904 965.161C362.397 967.421 360.325 967.986 357.688 967.986C354.675 967.986 352.791 966.668 350.719 964.596C348.835 962.524 346.763 962.147 344.314 961.205C341.866 960.263 339.794 958.191 337.91 956.684C335.838 954.989 333.578 953.482 330.941 952.352C330.752 952.164 330.564 952.164 330.187 951.975C329.245 951.599 329.245 951.599 330.187 952.164C330.376 952.352 330.564 952.352 330.752 952.54C330.564 952.164 330.187 951.787 329.81 951.599C328.68 950.657 327.362 950.092 326.42 949.15C321.334 945.194 317.19 940.297 313.8 935.023C310.409 929.937 307.584 924.286 305.323 918.635C302.874 912.984 300.426 907.145 299.107 901.117C297.789 894.901 298.731 888.685 296.47 882.469C294.398 876.63 291.384 871.356 290.066 865.328C288.559 859.112 287.805 852.896 286.11 846.68C284.603 840.652 282.155 834.813 279.517 829.162C274.055 817.86 268.027 807.312 263.883 795.445C259.739 783.39 257.102 770.958 256.16 758.337C255.595 751.933 255.595 745.529 255.784 739.124C255.972 736.299 256.16 733.473 256.349 730.648C256.725 727.823 257.667 724.244 256.914 721.418C256.725 720.665 255.784 719.535 255.784 718.781C255.784 717.839 257.102 716.709 257.479 715.767C258.609 713.695 258.797 711.435 259.739 709.363C260.304 708.044 261.246 706.726 262.188 705.596C263.695 703.147 265.202 700.51 266.709 698.061C269.911 692.975 273.49 687.889 278.199 683.934C282.72 679.978 288.182 676.776 293.08 673.385C297.977 669.995 302.309 665.851 306.83 662.272C311.728 658.505 317.002 655.491 322.841 653.796C328.304 652.1 334.331 650.97 340.17 651.159C342.808 651.159 345.445 650.217 348.082 649.652C350.907 649.086 353.921 648.71 356.935 648.521C369.744 647.768 381.987 650.593 393.854 655.114C406.286 659.823 418.153 665.851 430.585 670.748C433.599 672.067 436.801 673.197 440.003 674.327C441.51 674.892 442.829 675.269 444.336 675.646C446.031 676.211 447.915 676.399 449.61 677.153C451.87 678.095 453.942 680.355 456.014 681.862C459.028 683.934 462.23 685.817 465.432 687.513C477.111 693.54 489.92 696.554 503.105 697.308C516.479 697.873 529.853 696.931 543.227 696.743C568.656 696.366 594.085 697.496 619.137 703.147C622.339 703.9 625.353 704.654 628.555 705.407C629.874 705.784 631.192 706.161 632.699 706.537C633.641 706.726 634.96 706.914 635.713 707.479C635.336 706.914 634.771 706.349 634.395 705.784C635.148 708.798 634.395 712.188 634.395 715.39C634.583 719.723 635.148 723.867 635.901 728.199C637.408 736.864 639.104 745.905 637.032 754.57C634.96 762.481 630.439 769.263 625.73 775.855C621.021 782.26 616.312 788.476 610.284 793.75C609.907 794.127 610.661 793.75 609.907 793.938C609.719 793.938 609.531 794.127 609.342 794.127C608.589 794.315 609.342 794.127 608.965 794.127C607.647 794.315 606.14 794.315 604.821 794.315C600.866 794.127 596.91 793.75 592.954 793.373C583.16 792.243 573.365 790.548 563.57 789.041C558.861 788.287 554.152 787.534 549.254 786.969C546.052 786.215 543.227 785.65 540.401 786.215C536.822 786.78 538.329 792.243 541.908 791.678C542.285 791.678 541.154 791.678 541.72 791.678C541.908 791.678 542.096 791.678 542.285 791.678C542.85 791.678 543.415 791.678 544.168 791.678C545.675 791.678 546.994 791.866 548.501 792.055C552.645 792.62 556.977 793.185 561.121 793.75C571.481 795.257 581.841 796.952 592.201 798.271C596.345 798.836 600.489 799.212 604.445 799.212C606.893 799.212 610.096 799.401 612.356 798.082C615.37 796.387 618.007 793.185 620.079 790.736C622.904 787.534 625.353 784.332 627.802 780.941C632.699 774.348 637.597 767.379 640.61 759.656C643.813 750.991 643.436 742.138 642.117 733.097C641.364 728.576 640.422 724.055 640.045 719.346C639.857 717.274 639.669 715.202 639.669 713.13C639.669 711.247 640.045 709.363 640.045 707.479C640.045 706.349 639.857 704.465 639.292 703.335C638.539 701.828 637.032 701.452 635.525 701.075C631.381 699.756 627.237 698.626 622.904 697.684C614.24 695.612 605.386 694.105 596.345 692.975C578.639 690.715 560.744 690.338 543.038 690.527C533.62 690.715 524.202 691.092 514.784 691.28C505.554 691.468 496.136 691.28 486.906 689.208C477.676 687.136 468.823 683.369 460.723 678.095C458.651 676.776 456.768 675.269 454.884 673.762C453.565 672.82 452.435 671.69 450.928 671.313C446.408 669.995 441.887 668.676 437.554 667.169C419.848 660.577 403.272 651.158 385.189 645.884C376.901 643.624 368.237 642.117 359.572 642.494C355.616 642.682 351.661 643.059 347.705 643.624C345.821 644.001 343.938 644.377 342.054 644.754C341.489 644.942 341.112 645.131 340.547 645.131C340.736 645.131 342.431 645.319 340.736 644.942C339.982 644.754 339.04 644.942 338.287 644.942C329.245 645.696 320.581 647.391 312.481 651.347C304.947 655.114 299.107 661.142 292.514 666.228C285.733 671.502 278.199 675.457 271.983 681.297C265.955 687.136 262 694.482 257.667 701.64C256.537 703.712 255.03 705.407 254.277 707.668C253.712 709.175 253.523 710.681 252.958 712.188C252.205 714.072 250.509 715.202 250.321 717.274C250.133 719.346 251.263 720.476 251.64 722.172C252.016 724.055 251.263 726.504 251.074 728.388C250.509 732.72 250.321 737.052 250.133 741.385C249.568 759.091 252.205 776.985 257.667 793.75C260.304 802.038 263.883 810.137 267.839 817.86C271.795 825.583 276.127 833.118 278.952 841.406C281.778 849.694 282.72 858.359 284.792 866.835C285.922 871.167 287.617 875.123 289.312 879.267C291.196 883.411 292.326 887.367 292.514 891.887C292.703 896.408 293.08 900.552 294.398 904.884C295.717 909.028 297.224 913.172 298.919 917.128C302.309 925.228 306.077 933.139 311.163 940.297C313.611 943.687 316.437 946.889 319.45 949.715C320.957 951.033 322.464 952.352 324.16 953.482C324.913 954.047 325.666 954.424 326.42 954.989C327.173 955.366 325.667 954.047 326.232 954.989C326.42 955.366 326.797 955.554 327.173 955.931C328.492 956.873 330.376 957.249 331.694 958.191C333.389 959.321 334.708 960.64 336.215 961.77C337.533 962.9 339.04 964.031 340.736 964.784C342.243 965.537 344.314 965.726 345.821 966.856C347.14 967.798 348.082 969.305 349.4 970.247C350.907 971.377 352.791 972.13 354.863 972.507C358.442 973.072 362.586 972.884 365.6 970.812C372.946 965.537 372.381 955.177 372.569 947.266C372.757 942.745 372.946 938.225 372.569 933.892C372.192 930.313 371.439 925.793 368.99 923.156C368.237 922.214 366.541 922.025 365.6 922.779C365.411 922.967 365.223 922.967 365.034 923.156C366.165 923.344 367.295 923.532 368.425 923.532C368.613 924.286 368.99 924.851 369.179 925.604C369.932 917.881 370.12 909.97 370.874 902.247C371.251 898.48 371.627 894.713 373.511 891.51C375.394 888.12 378.408 886.425 381.799 884.918C397.433 877.948 413.632 872.863 429.832 867.777C433.411 866.647 437.178 865.516 440.757 863.821C442.075 863.256 443.394 862.314 444.712 861.561C446.408 860.807 448.291 860.242 449.987 859.3C456.956 855.721 463.925 852.331 470.518 848.187C483.515 840.276 494.817 830.104 503.293 817.484C508.003 810.703 511.581 803.168 518.739 798.836C525.709 794.503 533.808 792.996 541.72 791.489C545.487 790.924 543.98 785.462 540.401 786.215Z" fill="black"/>
<path opacity="0.81" d="M1110.77 647.58C1105.3 649.463 1099.65 651.724 1095.51 658.316C1092.87 662.649 1091.18 668.488 1089.1 673.951C1086.09 682.427 1082.13 689.962 1077.8 696.366C1077.61 696.554 1077.61 696.554 1077.43 696.743C1076.67 697.873 1075.73 699.191 1074.79 700.133C1073.85 701.263 1073.09 702.393 1072.15 703.335C1071.21 704.465 1070.27 705.407 1069.51 706.349C1068.57 707.291 1067.63 708.233 1066.69 709.175C1065.75 710.116 1064.81 711.058 1063.86 712C1062.92 712.942 1061.98 713.884 1061.04 714.637C1060.47 715.202 1059.91 715.579 1059.53 716.144C1059.34 716.332 1058.97 716.709 1058.78 716.897C1058.59 717.086 1058.59 717.086 1058.4 717.274C1058.21 717.463 1058.21 717.463 1058.02 717.463C1057.84 717.463 1057.84 717.651 1057.65 717.651C1057.46 717.651 1057.46 717.839 1057.27 717.839C1057.08 718.028 1057.08 718.028 1056.89 718.216C1056.71 718.404 1056.52 718.781 1056.14 718.97C1055.76 719.346 1055.2 719.911 1054.82 720.288C1053.88 721.041 1052.94 721.607 1051.81 722.172C1051.62 722.172 1051.62 722.36 1051.43 722.36C1041.64 728.199 1031.65 733.662 1022.42 741.385C1021.67 742.138 1020.73 742.703 1019.97 743.833C1018.47 745.905 1017.34 749.296 1016.77 752.687C1016.21 756.077 1016.02 759.844 1016.02 763.423C1016.02 764.177 1016.02 764.93 1016.02 765.684C1016.02 767.756 1015.83 770.016 1015.83 772.088C1015.83 774.16 1015.64 776.42 1015.64 778.492C1015.64 779.623 1015.64 780.564 1015.45 781.695C1015.45 782.26 1015.45 782.825 1015.45 783.201C1015.45 783.39 1015.45 783.767 1015.45 783.955C1015.45 784.143 1015.45 784.143 1015.45 784.143C1015.45 784.143 1015.64 784.143 1015.64 783.955L1015.83 783.767V783.955C1015.83 784.143 1016.02 784.332 1016.02 784.52C1016.58 786.027 1016.77 787.722 1016.96 789.418C1017.15 791.113 1017.34 792.996 1017.34 794.692C1017.34 796.575 1017.34 798.271 1017.34 800.154C1017.34 804.298 1017.15 808.442 1017.15 812.586C1017.15 814.093 1017.15 815.6 1016.96 817.107C1016.77 820.121 1016.02 822.946 1015.08 825.395C1014.7 826.148 1014.51 826.902 1013.95 827.467C1013.38 828.22 1012.82 828.409 1012.06 828.597C1009.99 829.162 1007.54 828.409 1006.22 825.583C1005.85 825.018 1005.66 824.265 1005.28 823.7C1004.72 822.758 1003.78 822.381 1003.02 822.004C1000.76 820.497 999.255 816.919 997.183 814.47C996.618 813.905 996.241 813.528 995.676 812.963C995.488 812.775 995.111 812.398 994.923 812.398C994.923 812.398 994.734 812.398 994.734 812.21C994.734 812.021 994.734 812.021 994.734 811.833C994.546 811.644 994.546 811.456 994.357 811.456C993.416 810.326 992.474 809.007 991.532 807.5C990.59 805.993 989.837 804.487 988.895 802.98C988.141 801.284 987.388 799.589 986.634 797.894C985.881 796.199 985.316 794.315 984.563 792.431C983.997 790.548 983.244 788.476 982.867 786.592C982.302 784.52 981.737 782.636 981.36 780.564C980.795 778.492 980.419 776.42 979.853 774.348C979.477 772.276 978.912 770.204 978.535 768.132C977.781 764.365 977.028 760.598 976.84 756.642C976.651 752.875 976.84 749.108 976.463 745.34C975.898 740.82 974.579 736.676 973.637 732.343C971.565 723.302 971.377 713.13 969.87 703.712C967.987 691.845 964.408 681.297 961.582 670.372C961.017 668.111 960.452 665.663 959.887 663.402C959.322 660.954 958.945 658.693 958.38 656.244C958.003 653.796 957.438 651.347 957.061 648.898C956.685 646.449 956.308 644.001 955.931 641.552C955.555 639.103 955.366 636.655 954.989 634.018C954.801 631.569 954.424 628.932 954.236 626.483C954.048 624.034 953.859 621.397 953.671 618.948C953.482 616.311 953.482 613.863 953.294 611.225C953.294 608.588 953.294 606.14 953.294 603.503C953.294 600.865 953.294 598.417 953.483 595.78C953.483 593.143 953.671 590.694 953.859 588.057C953.859 586.738 954.048 585.608 954.048 584.29C954.048 583.724 954.048 583.159 954.048 582.594C954.048 581.841 954.048 581.087 954.048 580.522C954.048 579.957 953.859 579.58 953.671 579.204C953.482 578.827 953.482 578.45 953.294 577.885C953.106 577.32 953.106 576.755 953.294 576.19C953.294 575.625 953.482 575.248 953.671 574.871C953.859 574.306 954.048 573.741 954.236 573.176C954.424 572.423 954.613 571.481 954.801 570.539C955.555 564.888 955.555 566.395 957.25 561.309C959.51 554.34 961.77 547.37 964.973 541.719C967.986 536.257 971.942 532.678 975.333 527.78C978.912 522.883 981.925 516.855 985.881 513.088C986.258 512.711 986.823 512.146 987.2 511.77C987.576 511.393 988.141 511.016 988.518 510.639C988.895 510.263 989.46 510.074 989.837 509.697C990.213 509.509 990.779 509.132 991.155 508.944C991.532 508.756 992.097 508.567 992.474 508.379C992.851 508.191 993.416 508.002 993.792 507.814C994.169 507.625 994.734 507.437 995.299 507.437C995.864 507.249 996.241 507.249 996.806 507.06C997.371 506.872 997.748 506.872 998.313 506.684C998.878 506.495 999.443 506.495 999.82 506.495C1000.01 506.495 1000.2 506.495 1000.39 506.495C1000.57 506.495 1000.57 506.495 1000.76 506.684C1000.76 506.684 1000.76 506.872 1000.95 506.684C1000.95 506.684 1001.14 506.684 1001.14 506.495C1001.33 506.307 1001.7 506.307 1001.89 506.119C1002.46 505.93 1003.02 505.553 1003.59 505.365C1004.15 505.177 1004.72 504.988 1005.28 504.8C1005.85 504.612 1006.41 504.423 1006.98 504.423C1007.54 504.423 1008.11 504.235 1008.67 504.047C1009.24 504.047 1009.8 503.858 1010.37 503.858C1010.93 503.858 1011.5 503.858 1012.06 503.858C1012.63 503.858 1013.19 503.858 1013.76 503.858C1014.32 503.858 1014.89 504.047 1015.45 504.047C1015.64 504.047 1016.02 504.047 1016.21 504.235C1016.77 504.235 1017.15 504.423 1017.71 504.612C1018.28 504.8 1018.66 504.8 1019.22 504.988C1019.79 505.177 1020.16 505.365 1020.73 505.553C1021.29 505.742 1021.67 505.93 1022.24 506.119C1022.8 506.307 1023.18 506.495 1023.74 506.684C1024.31 506.872 1024.68 507.06 1025.06 507.437C1025.44 507.625 1026 508.002 1026.38 508.191C1026.76 508.379 1027.32 508.756 1027.7 508.944C1028.07 509.132 1028.64 509.509 1029.02 509.886C1029.39 510.263 1029.96 510.451 1030.33 510.828C1030.71 511.204 1031.28 511.393 1031.65 511.77C1032.03 512.146 1032.6 512.523 1032.97 512.711C1033.35 513.088 1033.91 513.465 1034.29 513.653C1034.67 514.03 1035.23 514.407 1035.61 514.783C1035.99 515.16 1036.55 515.537 1036.93 515.913C1037.3 516.29 1037.87 516.667 1038.25 517.044C1038.62 517.42 1039.19 517.797 1039.56 518.174C1039.94 518.551 1040.51 518.927 1040.88 519.304C1041.26 519.681 1041.83 520.057 1042.2 520.434C1042.58 520.811 1043.14 521.188 1043.52 521.564C1043.9 521.941 1044.46 522.318 1044.84 522.695C1045.22 523.071 1045.78 523.448 1046.16 523.825C1046.53 524.201 1047.1 524.578 1047.48 524.955C1047.85 525.332 1048.42 525.708 1048.79 526.085C1049.17 526.462 1049.74 526.839 1050.11 527.027C1050.49 527.404 1051.05 527.78 1051.43 527.969C1051.81 528.345 1052.37 528.534 1052.75 528.911C1053.13 529.287 1053.69 529.476 1054.07 529.852C1054.45 530.229 1055.01 530.417 1055.39 530.794C1055.76 530.983 1056.33 531.359 1056.71 531.548C1057.27 531.736 1057.65 532.113 1058.21 532.301C1058.78 532.49 1059.15 532.678 1059.72 533.055C1059.72 533.055 1059.91 533.055 1059.91 533.243L1060.1 533.431L1060.28 533.62C1060.47 533.808 1060.66 534.185 1061.04 534.373C1061.23 534.75 1061.41 534.938 1061.6 535.315C1061.98 535.88 1062.36 536.445 1062.73 537.01C1063.11 537.575 1063.49 538.14 1063.86 538.517C1064.24 539.082 1064.62 539.459 1065.18 540.024C1065.75 540.589 1065.94 540.966 1066.5 541.531C1066.88 541.908 1067.44 542.473 1067.82 542.85C1068.2 543.226 1068.76 543.791 1069.14 544.168C1069.51 544.545 1070.08 544.921 1070.46 545.298C1070.83 545.675 1071.4 546.052 1071.77 546.428C1072.15 546.805 1072.72 547.182 1073.09 547.37C1073.47 547.747 1074.04 547.935 1074.41 548.312C1074.79 548.689 1075.35 548.877 1075.92 549.254C1076.48 549.442 1076.86 549.819 1077.43 550.007C1077.99 550.196 1078.37 550.384 1078.93 550.761C1079.5 550.949 1079.87 551.138 1080.44 551.326C1081 551.514 1081.38 551.703 1081.95 551.891C1082.13 551.891 1082.32 552.079 1082.51 552.079C1089.1 553.963 1095.89 553.021 1102.67 552.833C1104.17 552.833 1105.68 552.644 1107 552.644C1108.51 552.644 1109.82 552.644 1111.33 552.456C1112.84 552.456 1114.16 552.456 1115.66 552.456C1117.17 552.456 1118.49 552.456 1120 552.456C1121.31 552.456 1122.82 552.644 1124.14 552.644C1125.46 552.644 1126.97 552.833 1128.28 553.021C1129.6 553.209 1131.11 553.398 1132.43 553.586C1133.75 553.775 1135.25 553.963 1136.57 554.34C1137.89 554.528 1139.4 554.905 1140.72 555.281C1142.03 555.658 1143.54 556.035 1144.86 556.412C1146.18 556.788 1147.69 557.354 1149 557.73C1150.32 558.295 1151.83 558.86 1153.15 559.425C1154.47 559.991 1155.97 560.744 1157.29 561.309C1158.05 561.686 1158.8 562.063 1159.55 562.439C1159.93 562.628 1160.31 562.816 1160.68 563.004C1160.87 563.193 1161.06 563.193 1161.25 563.381C1161.44 563.381 1161.62 563.381 1161.62 563.758C1161.62 563.946 1161.62 564.323 1161.62 564.511C1161.62 564.7 1161.62 565.076 1161.62 565.265C1161.62 565.641 1161.62 566.018 1161.81 566.395C1161.81 566.583 1161.81 566.96 1161.81 567.337C1161.62 567.902 1161.62 568.467 1161.62 569.22C1161.62 570.539 1161.62 572.046 1161.62 573.364C1161.62 576.19 1161.81 579.015 1162 581.841C1162.19 583.913 1162.38 585.985 1162.57 588.057C1163.32 595.591 1164.07 603.314 1163.32 611.037C1162.38 621.585 1158.8 630.815 1155.41 639.292C1153.15 644.943 1150.7 650.594 1147.87 654.926C1146.18 658.693 1114.53 646.261 1110.77 647.58Z" fill="url(#paint3_linear_15_607)"/>
<path d="M1110.01 644.943C1105.49 646.638 1100.97 648.521 1097.2 651.912C1092.87 656.056 1090.61 661.519 1088.73 667.169C1084.39 679.036 1079.69 690.715 1071.59 700.51C1067.63 705.219 1063.3 709.551 1058.78 713.695C1058.4 714.072 1057.84 714.449 1057.46 714.825C1057.27 715.014 1056.33 715.767 1057.27 715.202C1056.33 715.956 1055.39 716.144 1054.63 717.086C1052.56 719.346 1049.92 720.665 1047.29 722.172C1042.01 725.374 1036.74 728.388 1031.46 731.778C1028.83 733.473 1026.19 735.357 1023.74 737.241C1021.29 739.124 1018.84 740.82 1017.15 743.268C1013.38 749.108 1013.38 757.207 1013.19 763.8C1013.01 767.567 1012.82 771.523 1012.82 775.29C1012.63 778.681 1012.06 782.26 1012.63 785.462C1013 787.722 1015.83 787.911 1017.34 786.78C1017.53 786.78 1017.53 786.592 1017.71 786.404C1016.21 786.215 1014.7 786.027 1013.19 785.839C1014.14 787.534 1014.14 790.359 1014.32 792.243C1014.51 794.692 1014.51 797.329 1014.51 799.966C1014.51 805.24 1014.51 810.326 1014.32 815.6C1014.32 817.484 1013.76 827.655 1010.37 826.525C1008.67 825.96 1008.3 823.511 1007.35 822.193C1006.22 820.686 1004.53 820.121 1003.21 818.614C1002.08 817.107 1001.14 815.412 1000.01 813.905C999.443 813.151 998.878 812.398 998.124 811.833C997.936 811.644 997.559 811.268 997.183 811.079C995.299 809.572 997.371 811.456 997.371 811.456C997.559 811.079 994.169 806.935 993.792 806.37C992.473 804.298 991.343 802.038 990.213 799.589C986.069 790.548 983.809 780.564 981.925 770.958C980.795 765.872 979.853 760.975 979.476 755.7C979.288 750.615 979.288 745.717 978.346 740.82C977.404 736.11 976.086 731.59 975.332 726.881C974.579 721.983 974.202 716.897 973.637 712C972.507 702.017 970.435 692.41 967.798 682.615C965.161 673.009 962.524 663.402 960.64 653.419C957.061 634.206 955.742 614.616 956.308 595.215C956.496 590.505 957.061 585.796 957.061 581.087C957.061 579.015 955.931 577.32 956.684 575.436C957.438 573.176 957.814 571.104 958.191 568.844C958.568 566.207 959.698 563.569 960.452 560.932C961.959 556.223 963.465 551.514 965.349 547.182C969.116 538.894 975.897 532.301 980.795 524.767C983.055 521.188 985.316 517.232 988.706 514.407C990.401 512.9 992.285 511.581 994.357 510.828C995.299 510.451 996.241 510.263 997.183 509.886C997.748 509.697 998.124 509.697 998.689 509.509C998.878 509.509 1000.57 509.132 1000.01 509.132C999.443 509.132 1000.76 509.321 1000.95 509.321C1001.7 509.321 1002.08 509.321 1002.83 508.944C1003.78 508.567 1004.72 508.002 1005.66 507.814C1008.11 506.872 1010.56 506.495 1013.19 506.684C1017.71 506.872 1021.86 508.567 1025.81 510.828C1034.29 515.725 1041.26 522.695 1048.98 528.534C1050.87 529.852 1052.56 531.171 1054.44 532.301C1055.58 532.866 1056.52 533.62 1057.65 534.185C1058.02 534.373 1058.59 534.561 1059.15 534.938C1060.1 535.503 1058.97 534.75 1059.53 535.127C1060.66 536.257 1061.6 537.952 1062.54 539.271C1063.67 540.777 1064.81 542.096 1066.12 543.415C1072.9 550.572 1081.19 554.905 1090.99 555.47C1096.07 555.658 1101.16 555.093 1106.43 554.905C1111.33 554.716 1116.23 554.528 1121.13 554.716C1130.73 555.093 1140.34 556.412 1149.38 559.802C1151.45 560.556 1153.71 561.497 1155.6 562.439C1156.73 563.004 1157.86 563.569 1158.8 564.135C1159.18 564.323 1159.55 564.511 1159.93 564.7C1160.12 564.888 1161.06 565.641 1160.49 565.076C1160.31 564.323 1159.93 563.758 1159.74 563.004C1160.49 568.09 1159.74 573.364 1160.12 578.45C1160.49 584.855 1161.25 591.071 1161.62 597.475C1162 604.068 1161.81 610.472 1160.49 616.876C1159.36 622.527 1157.48 627.801 1155.41 633.076C1153.34 638.538 1151.26 644.001 1148.44 649.087C1148.06 649.84 1146.55 651.535 1146.37 652.477C1146.37 652.289 1146.93 651.912 1146.93 651.912C1146.93 651.912 1146.55 652.1 1146.37 652.1C1145.99 652.1 1147.12 652.1 1146.37 652.1C1145.8 652.1 1145.24 652.1 1144.67 652.1C1138.64 651.724 1132.43 649.652 1126.59 647.956C1123.2 647.015 1119.81 646.073 1116.42 645.131C1114.72 644.943 1112.27 644.189 1110.01 644.943C1106.62 646.073 1107.94 651.347 1111.52 650.405C1111.9 650.217 1110.95 650.217 1111.9 650.405C1112.46 650.593 1112.27 650.405 1112.46 650.405C1113.78 650.593 1115.1 650.97 1116.23 651.159C1119.43 651.912 1122.63 652.854 1125.83 653.796C1132.24 655.491 1138.83 657.94 1145.42 658.128C1147.68 658.128 1149.95 657.751 1151.45 655.868C1155.03 650.97 1157.1 645.131 1159.36 639.48C1164.07 627.613 1167.84 615.935 1167.65 603.126C1167.65 596.345 1166.71 589.752 1166.14 583.159C1165.77 579.769 1165.58 576.378 1165.58 572.988C1165.58 570.351 1165.77 567.713 1165.58 565.076C1165.39 563.004 1165.01 561.686 1163.13 560.556C1160.49 559.049 1157.67 557.73 1154.84 556.6C1149 554.151 1142.98 552.456 1136.76 551.326C1124.14 549.065 1111.14 549.631 1098.52 550.384C1092.31 550.761 1085.9 550.761 1080.06 547.747C1074.79 545.11 1070.46 540.966 1066.88 536.445C1065.56 534.75 1064.43 532.113 1062.54 530.983C1061.41 530.229 1059.91 529.664 1058.78 529.099C1057.27 528.157 1055.76 527.215 1054.26 526.273C1048.23 522.129 1042.95 517.232 1037.12 512.711C1031.84 508.567 1026.19 504.8 1019.79 502.916C1013.19 501.033 1006.22 501.975 1000.01 504.988C1000.95 504.988 1001.89 504.988 1002.83 504.988C1000.2 503.858 996.994 504.8 994.357 505.742C991.155 506.684 988.518 508.379 985.881 510.451C980.795 514.595 977.781 520.623 974.014 526.085C970.246 531.548 965.349 536.257 962.147 542.284C958.756 548.5 956.684 555.47 954.424 562.251C953.859 563.946 953.105 565.641 952.729 567.525C952.54 568.844 952.352 570.351 951.975 571.669C951.599 573.364 950.845 574.871 950.468 576.567C950.092 578.073 950.468 579.58 950.845 581.087C951.222 582.594 951.033 584.289 951.033 585.985C950.845 589.564 950.657 593.143 950.468 596.533C949.903 611.037 950.657 625.353 952.352 639.668C954.236 654.549 957.438 668.865 961.393 683.18C963.465 690.338 965.349 697.308 966.479 704.654C967.609 712 968.174 719.535 969.116 726.881C970.058 734.227 972.884 741.196 973.26 748.542C973.449 752.121 973.26 755.889 973.637 759.468C974.014 763.235 974.767 767.002 975.521 770.769C978.346 784.708 981.548 800.343 990.025 812.209C990.401 812.775 990.966 813.528 991.343 814.093C991.343 814.093 992.097 815.223 991.72 814.47C991.343 813.716 991.908 814.847 991.908 814.847C992.473 815.788 993.415 816.353 994.357 817.107C996.429 819.179 997.559 822.004 999.443 824.076C1000.38 825.018 1001.51 825.395 1002.27 826.148C1003.4 827.09 1003.78 828.974 1004.72 830.104C1006.41 831.988 1008.86 833.118 1011.5 832.741C1018.47 831.611 1019.22 821.628 1019.41 816.165C1019.6 808.63 1019.97 800.908 1019.6 793.373C1019.41 790.171 1019.22 786.404 1017.71 783.578C1016.96 782.071 1014.32 781.695 1013.19 783.013C1013.19 783.201 1013.01 783.201 1012.82 783.39C1014.32 783.767 1016.02 784.143 1017.53 784.708C1017.34 783.578 1017.71 782.071 1017.71 780.753C1017.71 779.057 1017.9 777.551 1017.9 775.855C1018.09 772.465 1018.09 769.263 1018.28 765.872C1018.47 760.033 1018.28 753.44 1020.73 747.977C1021.86 745.529 1023.93 744.21 1025.81 742.515C1028.26 740.443 1030.9 738.748 1033.72 736.864C1038.81 733.473 1044.09 730.271 1049.55 727.257C1051.81 725.939 1054.26 724.62 1056.33 722.925C1057.08 722.36 1057.65 721.607 1058.4 720.853C1059.15 720.288 1059.91 719.911 1060.66 719.158C1064.8 715.39 1068.95 711.435 1072.72 707.291C1080.44 698.626 1086.09 688.454 1090.42 677.718C1092.68 671.69 1094.19 665.097 1097.77 659.635C1100.78 654.926 1105.68 652.665 1110.77 650.782C1114.91 649.087 1113.59 643.624 1110.01 644.943Z" fill="black"/>
<path opacity="0.6" d="M650.559 354.672C664.907 359.516 672.928 370.229 679.845 381.304C685.769 390.959 692.188 400.508 700.869 408.444C712.165 419.212 725.931 427.82 740.039 435.978C757.54 445.671 776.32 457.225 773.144 475.852C771.854 486.545 764.092 498.118 765.181 508.68C767.37 525.157 792.546 519.028 804.529 513.081C828.972 502.465 841.911 481.628 855.521 462.907C868.806 443.251 888.267 426.921 903.134 408.183C918.3 386.871 931.225 359.51 919.118 335.36C895.718 292.536 853.2 275.13 797.201 282.82C774.051 284.374 752.071 289.569 728.596 290.189C714.392 290.335 699.686 287.324 685.074 283.917C667.263 279.813 649.451 275.709 631.281 273.438C620.349 272.007 608.922 270.681 600.015 272.583C582.277 275.743 574.851 293.144 574.311 306.94C573.357 323.461 581.22 340.107 601.47 344.82C617.15 349.003 635.638 348.946 650.787 354.372L650.559 354.672Z" fill="url(#paint4_linear_15_607)"/>
<path d="M651.734 352.036C659.756 354.842 666.564 359.79 672.214 365.989C677.463 371.897 681.534 378.809 685.833 385.422C690.418 392.476 695.498 399.424 701.49 405.174C707.748 411.117 714.596 416.559 721.785 421.55C728.955 426.295 736.372 430.987 743.997 435.133C749.926 438.511 755.989 441.986 761.234 446.263C766.193 450.099 770.583 454.685 773.433 460.477C776.13 465.926 776.486 472 775.358 478.392C774.041 485.576 770.552 492.346 768.721 499.389C767.173 505.242 766.692 511.871 771.86 515.161C776.359 517.966 782.851 517.333 788.313 516.418C794.632 515.194 800.491 512.939 806.178 510.093C822.174 502.41 833.93 488.854 844.484 474.426C849.704 467.287 854.524 459.856 860.145 453.008C866.202 445.314 872.945 438.351 879.67 431.141C886.394 423.932 893.366 416.67 899.556 409.072C903.904 403.625 907.585 397.693 910.865 391.47C917.217 379.571 921.834 366.41 920.948 353.671C920.4 346.759 918.387 340.411 914.908 334.627C911.124 328.156 906.731 321.939 901.768 316.472C892.244 305.829 880.134 297.495 866.509 292.245C852.349 286.608 836.693 284.303 820.832 284.175C812.15 284.146 803.565 285.352 794.694 286.116C785.823 286.881 776.858 288.042 768.026 289.3C750.609 291.764 732.832 294.43 715.73 292.936C698.114 291.3 681.386 286.588 664.356 282.818C647.325 279.049 629.686 275.536 611.654 274.993C604.475 274.894 596.327 275.253 589.768 279.792C584.046 283.775 580.365 289.707 578.361 296.159C574.106 309.117 576.271 323.717 584.421 332.896C589.404 338.61 596.303 341.53 603.618 343.357C611.829 345.369 620.323 346.192 628.722 347.411C636.835 348.189 644.493 349.566 651.734 352.036C654.84 353.13 652.604 358.252 649.498 357.158C633.454 351.546 615.727 351.691 599.153 347.323C584.635 343.519 574.463 332.638 571.878 317.501C569.602 304.682 572.747 288.823 583.253 278.547C595.963 265.917 614.8 268.673 629.161 270.502C647.845 272.914 666.151 276.912 684.344 281.061C701.642 285.024 718.9 288.493 737.404 287.053C755.547 285.815 773.874 282.152 791.978 280.421C801.096 279.603 810.309 278.389 819.353 278.215C827.768 278.05 836.243 278.626 844.642 279.844C859.937 282.352 874.305 287.443 887.023 295.522C899.76 303.847 910.467 315.117 918.416 328.105C922.181 334.33 925.07 340.616 926.172 348.163C927.063 354.625 926.716 361.351 925.36 368.042C922.42 381.723 915.518 394.619 907.395 406.394C902.1 414.177 895.356 421.14 888.859 428.05C881.907 435.559 874.688 442.874 868.137 450.674C856.286 464.626 847.24 480.615 834.722 494.082C823.363 506.298 809.122 515.489 793.614 519.804C782.406 522.825 765.881 523.843 763.186 510.486C760.204 496.689 773.177 482.623 771.071 468.764C770.067 462.451 766.153 457.513 761.802 453.422C756.651 448.748 750.816 444.973 744.754 441.498C729.331 432.616 713.66 423.787 700.609 411.512C694.35 405.569 688.815 399.22 684.096 392.069C679.397 385.165 675.42 377.855 670.131 371.454C664.71 364.955 658.015 359.858 649.859 356.955C646.392 356.064 648.628 350.942 651.734 352.036Z" fill="black"/>
</g>
<defs>
<filter id="filter0_f_15_607" x="0" y="0" width="1424" height="1424" filterUnits="userSpaceOnUse" color-interpolation-filters="sRGB">
<feFlood flood-opacity="0" result="BackgroundImageFix"/>
<feBlend mode="normal" in="SourceGraphic" in2="BackgroundImageFix" result="shape"/>
<feGaussianBlur stdDeviation="77.75" result="effect1_foregroundBlur_15_607"/>
</filter>
<filter id="filter1_f_15_607" x="84.4109" y="470.556" width="1255.18" height="481.004" filterUnits="userSpaceOnUse" color-interpolation-filters="sRGB">
<feFlood flood-opacity="0" result="BackgroundImageFix"/>
<feBlend mode="normal" in="SourceGraphic" in2="BackgroundImageFix" result="shape"/>
<feGaussianBlur stdDeviation="36.9" result="effect1_foregroundBlur_15_607"/>
</filter>
<filter id="filter2_f_15_607" x="108.8" y="108.8" width="1206.4" height="1206.4" filterUnits="userSpaceOnUse" color-interpolation-filters="sRGB">
<feFlood flood-opacity="0" result="BackgroundImageFix"/>
<feBlend mode="normal" in="SourceGraphic" in2="BackgroundImageFix" result="shape"/>
<feGaussianBlur stdDeviation="23.35" result="effect1_foregroundBlur_15_607"/>
</filter>
<linearGradient id="paint0_linear_15_607" x1="851.885" y1="775.479" x2="851.885" y2="830.57" gradientUnits="userSpaceOnUse">
<stop stop-color="#88A9BB"/>
<stop offset="1" stop-color="#88A9BB" stop-opacity="0.24"/>
</linearGradient>
<linearGradient id="paint1_linear_15_607" x1="571.663" y1="597.445" x2="571.663" y2="651.788" gradientUnits="userSpaceOnUse">
<stop stop-color="#88A9BB"/>
<stop offset="1" stop-color="#88A9BB" stop-opacity="0.24"/>
</linearGradient>
<linearGradient id="paint2_linear_15_607" x1="445.452" y1="645.131" x2="445.452" y2="970.045" gradientUnits="userSpaceOnUse">
<stop stop-color="#88A9BB"/>
<stop offset="1" stop-color="#88A9BB" stop-opacity="0.24"/>
</linearGradient>
<linearGradient id="paint3_linear_15_607" x1="1058.39" y1="503.858" x2="1058.39" y2="828.772" gradientUnits="userSpaceOnUse">
<stop stop-color="#88A9BB"/>
<stop offset="1" stop-color="#88A9BB" stop-opacity="0.24"/>
</linearGradient>
<linearGradient id="paint4_linear_15_607" x1="841.029" y1="296.658" x2="789.114" y2="476.366" gradientUnits="userSpaceOnUse">
<stop stop-color="#88A9BB" stop-opacity="0"/>
<stop offset="1" stop-color="#88A9BB"/>
</linearGradient>
</defs>
</svg>
