<svg width="1920" height="1172" viewBox="0 0 1920 1172" fill="none" xmlns="http://www.w3.org/2000/svg">
<mask id="mask0_49_708" style="mask-type:alpha" maskUnits="userSpaceOnUse" x="-166" y="0" width="2122" height="1172">
<rect x="-166" width="2122" height="1172" fill="#D9D9D9"/>
</mask>
<g mask="url(#mask0_49_708)">
<path d="M1782.97 413.454C1606.07 397.399 1506.63 535.563 1425.18 595.563C1343.72 655.562 1266.38 761.708 1131.06 785.745C995.737 809.781 901.811 687.672 839.658 671.617C777.504 655.562 684.971 627.581 573.133 557.49C461.295 487.399 423.509 457.399 408.826 420.702C394.142 384.005 403.319 360.611 353.571 330.611C303.823 300.611 172.238 201.163 118.819 69.0536L-193.276 -97L-167.01 1174.09L747.187 1278.22H1691.76L2012.15 1210.14L2037.03 451.527L1783.1 413.454H1782.97Z" fill="#C6D3D8" stroke="black" stroke-width="13" stroke-miterlimit="10"/>
<g filter="url(#filter0_f_49_708)">
<path d="M1726.07 430.06C1693.98 447.032 1672.65 502.444 1700.69 544.921C1711.51 565.93 1740.88 590.792 1744.23 611.159C1747.59 641.251 1718.41 653.727 1701.64 660.975C1635.56 686.663 1553.28 688.131 1497.27 743.543C1437.01 801.341 1452.52 900.331 1502.08 960.789C1541.7 1019.87 1643.03 1043.36 1602.96 1126.11C1576.7 1180.7 1528.28 1209.69 1492.39 1248.68C1461.32 1279.23 1454.42 1339.87 1491.95 1359.59C1501.38 1364.55 1511.7 1365.83 1521.89 1366.57C1545.31 1367.94 1579.04 1368.13 1618.15 1367.02C1721.26 1362.25 1854.17 1358.31 1949.62 1322.07C1982.09 1307.48 1989.75 1284.27 2001.96 1237.48C2007.53 1215.47 2013.23 1189.04 2018.73 1159.87C2033.73 1080.24 2045.82 994.825 2054.94 912.624C2074.3 754.919 2073.8 641.801 1981.33 544.921C1925.19 484.188 1855.5 453.729 1788.48 433.362C1763.47 425.748 1746.51 420.06 1726.83 429.509L1726.07 429.876V430.06Z" fill="#8FA0AA"/>
</g>
<g filter="url(#filter1_f_49_708)">
<path d="M1756.45 443.454C1724.36 460.426 1703.03 515.839 1731.07 558.315C1741.89 579.324 1771.26 604.187 1774.61 624.553C1777.97 654.645 1748.79 667.122 1732.02 674.37C1665.94 700.057 1583.66 701.525 1527.65 756.938C1467.39 814.735 1482.9 913.725 1532.46 974.183C1572.08 1033.27 1673.41 1056.75 1633.34 1139.5C1607.08 1194.09 1558.66 1223.08 1522.77 1262.07C1491.7 1292.62 1484.8 1353.26 1522.33 1372.99C1531.76 1377.94 1542.08 1379.23 1552.27 1379.96C1575.69 1381.34 1609.42 1381.52 1648.53 1380.42C1751.64 1375.65 1884.55 1371.7 1980 1335.46C2012.47 1320.88 2020.13 1297.67 2032.34 1250.88C2037.91 1228.86 2043.61 1202.44 2049.11 1173.26C2064.11 1093.63 2076.2 1008.22 2085.32 926.019C2104.68 768.314 2104.18 655.195 2011.71 558.315C1955.57 497.582 1885.88 467.124 1818.86 446.757C1793.85 439.142 1776.89 433.454 1757.21 442.904L1756.45 443.271V443.454Z" fill="#6C7E8C"/>
</g>
<g filter="url(#filter2_f_49_708)">
<path d="M1075.36 841.524C1112.76 835.928 1161.06 820.974 1199.73 806.295C1228.02 799.506 1266.76 762.35 1285.68 797.029C1298.21 834.185 1258.21 871.065 1239.16 887.671C1169.41 946.294 1091.25 959.963 1013.97 982.073C979.534 990.238 955.799 997.211 927.255 980.606C901.495 967.945 837.443 886.019 880.418 855.377C933.9 826.937 1013.14 851.341 1074.03 841.708L1075.36 841.524Z" fill="#6C7E8C"/>
</g>
<g filter="url(#filter3_f_49_708)">
<path d="M458.953 826.478C514.587 838.405 613.703 860.698 640.603 863.083C661.742 863.175 681.616 873.083 703.642 881.615C720.478 887.395 740.352 890.606 752.251 910.973C791.049 997.302 642.565 998.495 610.665 1004.27C575.032 1007.94 546.17 1012.99 510.22 1001.43C473.004 991.614 431.104 979.229 393.382 967.945C368.698 960.514 350.09 953.817 328.95 951.248C303.443 946.661 271.101 945.743 255.215 911.89C239.328 874.826 246.417 809.139 275.911 791.8C293.95 781.524 331.102 795.928 359.141 804.368C394.395 815.194 425.978 819.965 457.814 826.386L458.953 826.662V826.478Z" fill="#BCCCD0"/>
</g>
<g filter="url(#filter4_f_49_708)">
<path d="M960.325 1150.1C1016.32 1142.53 1116.25 1130.06 1142.77 1123.12C1163.32 1115.93 1184.25 1118.71 1207.05 1119.42C1224.35 1119.23 1244.18 1115.51 1259.07 1131.2C1310.9 1201.7 1166.86 1253.98 1136.82 1270.58C1102.81 1286.41 1075.6 1301.25 1038.79 1302.4C1001.03 1305.68 958.296 1308.07 919.804 1310.1C894.609 1311.38 875.437 1311.28 854.481 1316.06C828.952 1320.39 797.385 1330.63 776.407 1303.22C754.904 1272.69 751.029 1206.44 776.839 1179.44C792.678 1163.25 831.127 1164.45 859.746 1162.99C895.765 1161.37 927.226 1155.13 959.203 1150.41L960.355 1150.28L960.325 1150.1Z" fill="#BCCCD0"/>
</g>
<path d="M-49.1044 379.744C-46.6626 461.2 -43.0205 606.516 -39.5497 645.261C-35.6145 675.373 -38.5676 705.539 -40.1817 738.508C-40.9129 763.568 -39.3298 792.467 -50.8749 813.258C-102.012 884.815 -130.897 673.66 -140.844 629.341C-150.068 579.307 -158.943 539.174 -157.911 485.81C-158.299 430.973 -157.833 368.983 -157.323 313.148C-156.958 276.603 -155.94 248.846 -158.197 218.266C-159.914 181.088 -165.408 134.872 -145.482 105.855C-123.382 76.2302 -77.5491 73.9007 -60.2274 112.61C-49.8568 136.346 -52.5875 191.96 -53.0025 233.472C-53.6688 285.706 -50.9279 331.569 -49.2578 378.105L-49.2287 379.779L-49.1044 379.744Z" fill="#BCCCD0"/>
<g filter="url(#filter6_f_49_708)">
<path d="M72.8687 169.97C107.237 169.695 157.048 169.42 173.061 216.208C181.225 239.511 176.795 272.446 185.972 292.079C189.897 300.886 195.719 307.4 201.985 312.538C219.581 326.666 245.91 338.317 273 363.73C289.329 378.592 303.76 397.399 319.013 413.913C349.14 443.179 378.128 472.903 406.167 505.564C415.471 516.481 417.686 529.508 427.686 542.261C450.282 567.031 476.675 590.884 489.333 628.315C497.498 651.984 507.055 687.856 487.941 705.745C445.535 750.607 434.142 770.332 384.774 723.176C355.596 695.378 339.077 664.461 305.785 652.168C238.632 631.159 216.1 642.627 207.302 529.05C205.087 509.875 201.099 485.747 198.631 465.472C196.606 450.151 195.656 437.766 190.213 429.326C185.846 422.445 179.833 417.858 174.516 412.537C164.706 403.179 158.883 393.363 146.415 390.243C123.376 384.739 93.7552 391.895 71.9193 377.767C34.5134 356.758 12.7408 283.088 31.9817 228.043C39.387 205.75 56.4759 172.906 71.9826 170.245L72.8687 170.062V169.97Z" fill="#82949F"/>
</g>
<path d="M2008.96 1287.98C1731.73 1208.69 1564.67 1027.94 1532.2 1003.91C1499.73 979.871 1474.23 957.853 1444.54 933.817C1414.86 909.78 1418.28 879.78 1361 887.762C1303.72 895.744 1293.34 893.725 1257.45 918.771C1221.56 943.817 1138.29 1027.31 944.472 1139.8" fill="#C6D3D8"/>
<path d="M2008.96 1287.98C1731.73 1208.69 1564.67 1027.94 1532.2 1003.91C1499.73 979.871 1474.23 957.853 1444.54 933.817C1414.86 909.78 1418.28 879.78 1361 887.762C1303.72 895.744 1293.34 893.725 1257.45 918.771C1221.56 943.817 1138.29 1027.31 944.472 1139.8" stroke="black" stroke-width="8" stroke-miterlimit="10"/>
<g filter="url(#filter7_f_49_708)">
<path d="M1506.44 1081.43C1473.97 1057.39 1448.47 1035.38 1418.78 1011.34C1389.1 987.303 1392.52 957.303 1335.24 965.284C1277.96 973.266 1267.58 971.248 1231.69 996.293C1195.8 1021.34 1127.83 1020.24 1156.44 1038.31C1299.29 1128.68 1495.43 1226.11 1630.12 1136.38C1667.21 1111.71 1538.98 1105.38 1506.51 1081.34L1506.44 1081.43Z" fill="#81939E"/>
</g>
<path d="M742.314 1204.92C686.49 1145.37 566.044 1068.77 518.258 1011.8C470.472 954.826 433.636 904.826 390.407 849.322C347.179 793.818 360.47 745.837 263.379 728.864C166.289 711.892 149.643 703.085 83.8185 725.653C17.9943 748.222 -253.467 884.001 -306 874.184" fill="#C6D3D8"/>
<path d="M742.314 1204.92C686.49 1145.37 566.044 1068.77 518.258 1011.8C470.472 954.826 433.636 904.826 390.407 849.322C347.179 793.818 360.47 745.837 263.379 728.864C166.289 711.892 149.643 703.085 83.8185 725.653C17.9943 748.222 -253.467 884.001 -306 874.184" stroke="black" stroke-width="8" stroke-miterlimit="10"/>
<g filter="url(#filter8_f_49_708)">
<path d="M491.486 1064.09C443.7 1007.12 406.864 957.119 363.635 901.615C320.406 846.111 333.697 798.13 236.607 781.158C139.516 764.185 122.87 755.378 57.0459 777.946C-8.77829 800.515 -123.401 840.79 -80.552 885.835C133.693 1111.06 436.801 1298.22 682.629 1220.6C750.352 1199.23 539.271 1121.06 491.486 1064.09Z" fill="#81939E"/>
</g>
<path d="M871.177 975.926C862.569 984.55 852.886 994.183 841.873 991.981C837.126 991.064 833.518 987.211 829.404 984C825.733 981.156 822.126 980.147 818.012 980.789C813.771 981.523 809.72 983.725 805.48 984.734C799.783 986.11 794.214 984.459 788.897 981.523C779.53 976.385 771.238 967.761 761.491 963.816C760.036 963.266 757.947 967.394 759.593 968.037C770.226 972.349 779.213 982.257 789.72 987.119C794.024 989.046 798.518 990.147 803.011 989.413C808.391 988.587 813.455 985.192 818.898 984.917C824.151 984.642 827.948 988.679 832.316 992.165C836.62 995.651 841.303 997.027 846.177 996.385C855.987 995.192 864.342 986.936 872.19 979.046C873.772 977.486 873.139 973.816 871.177 975.835V975.926Z" fill="black"/>
<path d="M250.721 662.902C234.012 672.81 219.265 651.617 203.821 645.929C196.922 643.361 190.403 645.287 183.378 645.287C171.542 645.287 164.327 632.351 157.871 619.783C157.554 619.232 155.719 618.407 156.099 619.141C160.972 628.59 166.099 638.315 173.631 643.544C181.922 649.232 190.277 645.104 199.011 646.113C217.366 648.131 233.189 675.929 252.493 664.461C252.873 664.278 251.291 662.626 250.721 662.902Z" fill="black"/>
<path d="M1545.69 549.416C1545.12 551.251 1544.55 553.27 1543.03 553.82C1541.44 554.279 1539.74 554.095 1538.15 554.004C1535.37 554.004 1532.52 553.912 1529.93 555.471C1527.58 556.939 1525.94 559.6 1524.55 562.627C1522.96 565.93 1521.32 569.967 1518.28 570.334C1516.89 570.517 1516.89 573.269 1518.41 573.178C1524.99 572.535 1525.75 560.242 1531.51 557.673C1534.74 556.205 1538.15 557.123 1541.44 556.939C1542.9 556.848 1544.29 556.572 1545.5 555.288C1546.57 554.095 1547.2 552.26 1547.71 550.517C1548.28 548.591 1546.19 547.857 1545.69 549.508V549.416Z" fill="black"/>
<path d="M1475.62 644.003C1461.7 643.727 1447.84 647.948 1435.24 656.48C1429.16 660.608 1423.4 665.562 1418.09 671.525C1412.33 677.947 1407.26 685.745 1401.32 691.8C1388.47 705.103 1371.95 704.094 1357.2 709.598C1344.48 714.369 1332.33 722.075 1321.25 732.351C1308.65 744.094 1297.58 759.048 1288.65 776.387C1287.01 779.506 1288.97 781.891 1290.62 778.68C1306.76 747.305 1330.17 724.552 1356.38 714.92C1369.73 709.965 1384.35 710.332 1396.76 700.699C1402.2 696.388 1406.88 690.424 1411.51 684.461C1416.82 677.672 1422.33 671.342 1428.47 666.296C1442.33 654.828 1458.22 649.232 1474.16 649.507C1475.75 649.507 1477.84 644.003 1475.62 643.911V644.003Z" fill="black"/>
</g>
<defs>
<filter id="filter0_f_49_708" x="1451.54" y="417.968" width="620.128" height="956.371" filterUnits="userSpaceOnUse" color-interpolation-filters="sRGB">
<feFlood flood-opacity="0" result="BackgroundImageFix"/>
<feBlend mode="normal" in="SourceGraphic" in2="BackgroundImageFix" result="shape"/>
<feGaussianBlur stdDeviation="3.3" result="effect1_foregroundBlur_49_708"/>
</filter>
<filter id="filter1_f_49_708" x="1481.92" y="431.362" width="620.128" height="956.371" filterUnits="userSpaceOnUse" color-interpolation-filters="sRGB">
<feFlood flood-opacity="0" result="BackgroundImageFix"/>
<feBlend mode="normal" in="SourceGraphic" in2="BackgroundImageFix" result="shape"/>
<feGaussianBlur stdDeviation="3.3" result="effect1_foregroundBlur_49_708"/>
</filter>
<filter id="filter2_f_49_708" x="859.361" y="775.843" width="435.304" height="221.496" filterUnits="userSpaceOnUse" color-interpolation-filters="sRGB">
<feFlood flood-opacity="0" result="BackgroundImageFix"/>
<feBlend mode="normal" in="SourceGraphic" in2="BackgroundImageFix" result="shape"/>
<feGaussianBlur stdDeviation="3.3" result="effect1_foregroundBlur_49_708"/>
</filter>
<filter id="filter3_f_49_708" x="240.352" y="781.641" width="524.916" height="233.552" filterUnits="userSpaceOnUse" color-interpolation-filters="sRGB">
<feFlood flood-opacity="0" result="BackgroundImageFix"/>
<feBlend mode="normal" in="SourceGraphic" in2="BackgroundImageFix" result="shape"/>
<feGaussianBlur stdDeviation="3.3" result="effect1_foregroundBlur_49_708"/>
</filter>
<filter id="filter4_f_49_708" x="752.257" y="1111.7" width="524.564" height="216.469" filterUnits="userSpaceOnUse" color-interpolation-filters="sRGB">
<feFlood flood-opacity="0" result="BackgroundImageFix"/>
<feBlend mode="normal" in="SourceGraphic" in2="BackgroundImageFix" result="shape"/>
<feGaussianBlur stdDeviation="3.3" result="effect1_foregroundBlur_49_708"/>
</filter>
<filter id="filter6_f_49_708" x="18.2423" y="163.328" width="487.442" height="593.606" filterUnits="userSpaceOnUse" color-interpolation-filters="sRGB">
<feFlood flood-opacity="0" result="BackgroundImageFix"/>
<feBlend mode="normal" in="SourceGraphic" in2="BackgroundImageFix" result="shape"/>
<feGaussianBlur stdDeviation="3.3" result="effect1_foregroundBlur_49_708"/>
</filter>
<filter id="filter7_f_49_708" x="1142.98" y="957.37" width="500.401" height="221.227" filterUnits="userSpaceOnUse" color-interpolation-filters="sRGB">
<feFlood flood-opacity="0" result="BackgroundImageFix"/>
<feBlend mode="normal" in="SourceGraphic" in2="BackgroundImageFix" result="shape"/>
<feGaussianBlur stdDeviation="3.3" result="effect1_foregroundBlur_49_708"/>
</filter>
<filter id="filter8_f_49_708" x="-96.5012" y="757.791" width="799.003" height="487.267" filterUnits="userSpaceOnUse" color-interpolation-filters="sRGB">
<feFlood flood-opacity="0" result="BackgroundImageFix"/>
<feBlend mode="normal" in="SourceGraphic" in2="BackgroundImageFix" result="shape"/>
<feGaussianBlur stdDeviation="3.3" result="effect1_foregroundBlur_49_708"/>
</filter>
</defs>
</svg>
